<svg xmlns="http://www.w3.org/2000/svg" viewBox="0 0 760 272" font-family="-apple-system,Segoe UI,Roboto,sans-serif">
<rect x="0" y="0" width="760" height="272" rx="12" fill="#fbfbfa"/>
<defs><marker id="a2" markerWidth="8" markerHeight="8" refX="6" refY="2.5" orient="auto"><path d="M0,0 L6,2.5 L0,5 Z" fill="#999"/></marker></defs>
<text x="14" y="26" fill="#333" font-size="13" font-weight="bold">TCP/IP</text>
<rect x="14" y="34" width="66" height="38" rx="5" fill="#cdeccd" stroke="#9aa0a6"/>
<text x="47" y="57" fill="#333" font-size="10.5" text-anchor="middle">GPU1</text>
<rect x="86" y="34" width="66" height="38" rx="5" fill="#fde9c8" stroke="#9aa0a6"/>
<text x="119" y="57" fill="#333" font-size="10.5" text-anchor="middle">HostRAM</text>
<line x1="74" y1="53" x2="84" y2="53" stroke="#999" stroke-width="1.4" marker-end="url(#a2)"/>
<rect x="158" y="34" width="66" height="38" rx="5" fill="#f5cccc" stroke="#9aa0a6"/>
<text x="191" y="57" fill="#333" font-size="10.5" text-anchor="middle">Kernel</text>
<line x1="146" y1="53" x2="156" y2="53" stroke="#999" stroke-width="1.4" marker-end="url(#a2)"/>
<rect x="230" y="34" width="66" height="38" rx="5" fill="#cfe2f3" stroke="#9aa0a6"/>
<text x="263" y="57" fill="#333" font-size="10.5" text-anchor="middle">NIC</text>
<line x1="218" y1="53" x2="228" y2="53" stroke="#999" stroke-width="1.4" marker-end="url(#a2)"/>
<rect x="302" y="34" width="66" height="38" rx="5" fill="#e2e2e2" stroke="#9aa0a6"/>
<text x="335" y="57" fill="#333" font-size="10.5" text-anchor="middle">net</text>
<line x1="290" y1="53" x2="300" y2="53" stroke="#999" stroke-width="1.4" marker-end="url(#a2)"/>
<rect x="374" y="34" width="66" height="38" rx="5" fill="#cfe2f3" stroke="#9aa0a6"/>
<text x="407" y="57" fill="#333" font-size="10.5" text-anchor="middle">NIC</text>
<line x1="362" y1="53" x2="372" y2="53" stroke="#999" stroke-width="1.4" marker-end="url(#a2)"/>
<rect x="446" y="34" width="66" height="38" rx="5" fill="#f5cccc" stroke="#9aa0a6"/>
<text x="479" y="57" fill="#333" font-size="10.5" text-anchor="middle">Kernel</text>
<line x1="434" y1="53" x2="444" y2="53" stroke="#999" stroke-width="1.4" marker-end="url(#a2)"/>
<rect x="518" y="34" width="66" height="38" rx="5" fill="#fde9c8" stroke="#9aa0a6"/>
<text x="551" y="57" fill="#333" font-size="10.5" text-anchor="middle">HostRAM</text>
<line x1="506" y1="53" x2="516" y2="53" stroke="#999" stroke-width="1.4" marker-end="url(#a2)"/>
<rect x="590" y="34" width="66" height="38" rx="5" fill="#cdeccd" stroke="#9aa0a6"/>
<text x="623" y="57" fill="#333" font-size="10.5" text-anchor="middle">GPU2</text>
<line x1="578" y1="53" x2="588" y2="53" stroke="#999" stroke-width="1.4" marker-end="url(#a2)"/>
<text x="666" y="57" fill="#777" font-size="11"></text>
<text x="14" y="114" fill="#333" font-size="13" font-weight="bold">Host RAM RDMA</text>
<rect x="14" y="122" width="66" height="38" rx="5" fill="#cdeccd" stroke="#9aa0a6"/>
<text x="47" y="145" fill="#333" font-size="10.5" text-anchor="middle">GPU1</text>
<rect x="86" y="122" width="66" height="38" rx="5" fill="#fde9c8" stroke="#9aa0a6"/>
<text x="119" y="145" fill="#333" font-size="10.5" text-anchor="middle">HostRAM</text>
<line x1="74" y1="141" x2="84" y2="141" stroke="#999" stroke-width="1.4" marker-end="url(#a2)"/>
<rect x="158" y="122" width="66" height="38" rx="5" fill="#cfe2f3" stroke="#9aa0a6"/>
<text x="191" y="145" fill="#333" font-size="10.5" text-anchor="middle">RNIC</text>
<line x1="146" y1="141" x2="156" y2="141" stroke="#999" stroke-width="1.4" marker-end="url(#a2)"/>
<rect x="230" y="122" width="66" height="38" rx="5" fill="#e2e2e2" stroke="#9aa0a6"/>
<text x="263" y="145" fill="#333" font-size="10.5" text-anchor="middle">net</text>
<line x1="218" y1="141" x2="228" y2="141" stroke="#999" stroke-width="1.4" marker-end="url(#a2)"/>
<rect x="302" y="122" width="66" height="38" rx="5" fill="#cfe2f3" stroke="#9aa0a6"/>
<text x="335" y="145" fill="#333" font-size="10.5" text-anchor="middle">RNIC</text>
<line x1="290" y1="141" x2="300" y2="141" stroke="#999" stroke-width="1.4" marker-end="url(#a2)"/>
<rect x="374" y="122" width="66" height="38" rx="5" fill="#fde9c8" stroke="#9aa0a6"/>
<text x="407" y="145" fill="#333" font-size="10.5" text-anchor="middle">HostRAM</text>
<line x1="362" y1="141" x2="372" y2="141" stroke="#999" stroke-width="1.4" marker-end="url(#a2)"/>
<rect x="446" y="122" width="66" height="38" rx="5" fill="#cdeccd" stroke="#9aa0a6"/>
<text x="479" y="145" fill="#333" font-size="10.5" text-anchor="middle">GPU2</text>
<line x1="434" y1="141" x2="444" y2="141" stroke="#999" stroke-width="1.4" marker-end="url(#a2)"/>
<text x="522" y="145" fill="#777" font-size="11">kernel 우회</text>
<text x="14" y="202" fill="#333" font-size="13" font-weight="bold">GPUDirect RDMA</text>
<rect x="14" y="210" width="66" height="38" rx="5" fill="#cdeccd" stroke="#9aa0a6"/>
<text x="47" y="233" fill="#333" font-size="10.5" text-anchor="middle">GPU1</text>
<rect x="86" y="210" width="66" height="38" rx="5" fill="#cfe2f3" stroke="#9aa0a6"/>
<text x="119" y="233" fill="#333" font-size="10.5" text-anchor="middle">RNIC</text>
<line x1="74" y1="229" x2="84" y2="229" stroke="#999" stroke-width="1.4" marker-end="url(#a2)"/>
<rect x="158" y="210" width="66" height="38" rx="5" fill="#e2e2e2" stroke="#9aa0a6"/>
<text x="191" y="233" fill="#333" font-size="10.5" text-anchor="middle">net</text>
<line x1="146" y1="229" x2="156" y2="229" stroke="#999" stroke-width="1.4" marker-end="url(#a2)"/>
<rect x="230" y="210" width="66" height="38" rx="5" fill="#cfe2f3" stroke="#9aa0a6"/>
<text x="263" y="233" fill="#333" font-size="10.5" text-anchor="middle">RNIC</text>
<line x1="218" y1="229" x2="228" y2="229" stroke="#999" stroke-width="1.4" marker-end="url(#a2)"/>
<rect x="302" y="210" width="66" height="38" rx="5" fill="#cdeccd" stroke="#9aa0a6"/>
<text x="335" y="233" fill="#333" font-size="10.5" text-anchor="middle">GPU2</text>
<line x1="290" y1="229" x2="300" y2="229" stroke="#999" stroke-width="1.4" marker-end="url(#a2)"/>
<text x="378" y="233" fill="#777" font-size="11">HostRAM도 우회</text>
</svg>